<svg width="114" height="28" viewBox="0 0 114 28" fill="none" xmlns="http://www.w3.org/2000/svg">
<g clip-path="url(#clip0_3471_1792)">
<path d="M3.22812 0.00395649L5.95751 0H6.48361L7.62679 0.00395649L9.25849 0.0217561C9.32178 0.023734 9.35343 0.0553802 9.35343 0.11867L9.3554 8.37014C9.3554 8.43936 9.3198 8.47496 9.25058 8.48089C8.41396 8.5422 7.61096 8.66088 6.84159 8.8369C4.28427 9.42827 1.42237 11.0956 0.154584 13.4452C0.0616261 13.6193 0.0141602 13.6074 0.0141602 13.4096V0.116694C0.0141602 0.0514256 0.0458033 0.0197794 0.111071 0.0197794L3.22812 0.00395649Z" fill="#24528E"/>
<path d="M22.2764 16.9736C18.8567 18.2295 15.1206 18.3818 11.6555 17.5175C11.5012 17.4799 11.5012 17.4384 11.6535 17.3929C14.8259 16.4594 17.498 14.8218 19.1613 12.1299C20.0988 10.6149 20.3638 9.30364 20.35 7.5236C20.3322 4.87728 20.3302 2.38721 20.3401 0.0553551C20.3401 0.0256878 20.3638 0.00195312 20.3935 0.00195312H29.5746C29.6062 0.00195312 29.6319 0.0276654 29.6319 0.0612883C29.6359 2.97264 29.6359 5.81872 29.6319 8.59954C29.628 10.8839 28.1485 13.105 26.41 14.6002C25.257 15.5931 23.8784 16.3842 22.2764 16.9736Z" fill="#B8922F"/>
<path d="M77.9482 3.54838L77.9521 4.7232L77.9501 7.23306L77.9482 8.39206L77.9501 26.2557C77.9501 26.2992 77.9146 26.3348 77.871 26.3348L73.3814 26.3408C73.3359 26.3408 73.3003 26.3052 73.3003 26.2597V11.6139V7.65829L73.3042 1.4954C73.3042 1.43013 73.3379 1.39651 73.4031 1.39651L77.8374 1.39453C77.9047 1.39453 77.9383 1.42816 77.9383 1.4954L77.9482 3.54838Z" fill="#333333"/>
<path d="M36.7145 18.6611C36.6097 18.6611 36.5721 18.7106 36.5998 18.8114C37.0092 20.281 37.7905 21.3332 38.9435 21.972C41.3881 23.3268 44.521 22.6464 46.2892 20.5163C46.3208 20.4768 46.3564 20.4728 46.396 20.5064L49.1867 22.8284C49.246 22.8778 49.2519 22.9332 49.2045 22.9926C46.8568 25.9217 43.0356 27.0332 39.4162 26.4162C35.6643 25.7773 32.929 22.9827 32.1774 19.2584C31.7007 16.9048 32.126 14.2526 33.4234 12.2214C34.798 10.0695 36.758 8.74434 39.3015 8.24791C40.6029 7.99277 41.9043 8.00266 43.2037 8.2756C48.1483 9.31396 50.1182 13.7957 49.8611 18.5563C49.8591 18.6255 49.8215 18.6611 49.7523 18.6611H36.7145ZM40.4902 11.7882C38.6567 12.0315 36.9756 13.5999 36.6413 15.5995C36.6275 15.6845 36.6631 15.726 36.7481 15.726H45.3635C45.4525 15.726 45.4921 15.6825 45.4822 15.5935C45.1717 12.7593 43.1958 11.4282 40.4902 11.7882Z" fill="#333333"/>
<path d="M66.637 8.36462L67.7841 8.37055L70.6994 8.39033C70.7667 8.39231 70.8003 8.42593 70.8003 8.4912L70.8141 12.0196V13.1925L70.8161 26.2065C70.8161 26.2936 70.7726 26.3371 70.6856 26.3371L66.3245 26.339C66.2493 26.339 66.2118 26.3015 66.2118 26.2263V25.1761C66.2118 25.0732 66.1682 25.0495 66.0812 25.1029C63.9195 26.4498 61.5896 26.881 59.0916 26.3924C50.581 24.7291 49.5565 12.3044 57.2364 8.79776C58.2411 8.34089 59.4081 8.08575 60.7391 8.0363C62.5271 7.97103 64.3071 8.43582 66.0812 9.43264C66.1663 9.48011 66.2098 9.4544 66.2118 9.35551L66.2137 8.49713C66.2137 8.42791 66.2474 8.39231 66.3166 8.38638L66.637 8.36462ZM61.2039 12.2431C59.6375 12.3559 58.4073 13.0145 57.5133 14.215C55.1676 17.3637 56.9813 21.8553 60.8835 22.3814C62.8277 22.6445 64.5721 22.1955 66.1129 21.0345C66.1742 20.989 66.2118 20.9159 66.2118 20.8368L66.2058 16.7071L66.1979 15.5164L66.1762 13.8175C66.1742 13.7502 66.1485 13.6948 66.097 13.6533C65.1596 12.876 64.0124 12.4112 62.6576 12.257C62.357 12.1581 61.8724 12.1541 61.2039 12.2431Z" fill="#333333"/>
<path d="M84.8389 10.732C84.8389 10.8388 84.8725 10.8487 84.9378 10.7636C86.2649 9.03697 88.0845 8.13113 90.3926 8.04608C90.7981 8.03223 91.1738 8.08564 91.5239 8.21024C91.5872 8.23199 91.6288 8.29133 91.6288 8.35857V13.1073C91.6288 13.2003 91.5833 13.2379 91.4923 13.2181C90.3887 12.9768 89.2494 12.8858 88.1379 13.1231C85.8337 13.6156 84.8369 15.6033 84.8369 17.8244C84.8389 20.5419 84.8389 23.3505 84.8369 26.2519C84.8369 26.3093 84.8092 26.337 84.7519 26.337H80.3473C80.2583 26.337 80.2128 26.2915 80.2128 26.2025V8.47131C80.2128 8.40406 80.2464 8.37044 80.3136 8.37044H84.7281C84.8033 8.37044 84.8409 8.40802 84.8409 8.4812L84.8389 10.732Z" fill="#333333"/>
<path d="M113.618 17.3236C113.618 22.4362 109.231 26.5798 103.818 26.5798C98.4047 26.5798 94.0179 22.4362 94.0179 17.3236C94.0179 12.2109 98.4047 8.06738 103.818 8.06738C109.231 8.06738 113.618 12.2109 113.618 17.3236ZM109.099 17.3236C109.099 14.4913 106.735 12.1951 103.82 12.1951C100.905 12.1951 98.5412 14.4913 98.5412 17.3236C98.5412 20.1558 100.905 22.4521 103.82 22.4521C106.735 22.4521 109.099 20.1558 109.099 17.3236Z" fill="#333333"/>
<path d="M9.97836 16.8665C9.476 17.9108 9.34546 18.959 9.34744 20.1002C9.35733 22.8514 9.35733 25.4443 9.34744 27.8751C9.34546 27.9581 9.30393 27.9997 9.22284 27.9997H0.107066C0.0398199 27.9997 0.00619499 27.966 0.00619499 27.8988C0.0160841 25.4601 0.0141065 22.9285 0.000261769 20.3C-0.00567169 19.3012 0.0892642 18.4784 0.285068 17.8337C1.89106 12.5371 7.97285 10.0569 13.0816 9.94612C14.6777 9.91052 16.2935 10.0767 17.9292 10.4426C18.1863 10.4999 18.1883 10.5652 17.9332 10.6364C14.4977 11.6016 11.5408 13.6071 9.97836 16.8665Z" fill="#B8922F"/>
<path d="M25.5003 18.1936C26.9698 17.446 28.6944 16.1347 29.4737 14.6118C29.5805 14.4041 29.6339 14.416 29.6339 14.6513V27.9482C29.6339 27.9759 29.6122 27.9976 29.5845 27.9976H20.3856C20.352 27.9976 20.3362 27.9818 20.3362 27.9482V19.6493C20.3362 19.5761 20.3718 19.5346 20.445 19.5247C21.153 19.4258 21.865 19.3823 22.5612 19.226C23.6589 18.9768 24.6399 18.6327 25.5003 18.1936Z" fill="#24528E"/>
</g>
<defs>
<clipPath id="clip0_3471_1792">
<rect width="113.618" height="28" fill="white"/>
</clipPath>
</defs>
</svg>
